<?xml version="1.0" standalone="no"?>
<!DOCTYPE svg PUBLIC "-//W3C//DTD SVG 20010904//EN"
 "http://www.w3.org/TR/2001/REC-SVG-20010904/DTD/svg10.dtd">
<svg version="1.0" xmlns="http://www.w3.org/2000/svg"
 width="30.000000pt" height="30.000000pt" viewBox="0 0 30.000000 30.000000"
 preserveAspectRatio="xMidYMid meet">

<g transform="translate(0.000000,30.000000) scale(0.100000,-0.100000)"
fill="#000000" stroke="none">
<path d="M140 280 c0 -5 5 -10 10 -10 6 0 10 5 10 10 0 6 -4 10 -10 10 -5 0
-10 -4 -10 -10z"/>
<path d="M132 238 c2 -13 10 -23 18 -23 8 0 16 10 18 23 3 17 -2 22 -18 22
-16 0 -21 -5 -18 -22z"/>
<path d="M35 156 l-40 -12 31 -12 c17 -7 43 -14 57 -16 27 -3 50 -16 29 -16
-18 0 -14 -18 8 -37 29 -25 25 -38 -6 -18 -29 19 -54 14 -54 -12 0 -13 3 -14
12 -5 9 9 19 7 45 -9 l33 -21 33 21 c26 16 36 18 45 9 9 -9 12 -8 12 5 0 26
-25 31 -54 12 -33 -22 -33 -7 0 25 24 22 25 25 8 31 -11 4 -14 8 -9 9 6 1 15
3 20 4 41 7 75 19 86 32 13 16 14 16 -131 19 -47 2 -103 -3 -125 -9z m133 -18
c11 -15 -2 -58 -18 -58 -16 0 -29 43 -18 58 6 6 14 12 18 12 4 0 12 -6 18 -12z"/>
<path d="M53 95 c0 -8 7 -15 15 -15 7 0 12 5 10 12 -6 18 -25 21 -25 3z"/>
<path d="M227 103 c-12 -11 -8 -23 8 -23 8 0 15 7 15 15 0 16 -12 20 -23 8z"/>
<path d="M27 88 c-3 -8 -2 -21 3 -27 11 -19 23 5 12 25 -8 14 -10 14 -15 2z"/>
<path d="M256 84 c-4 -9 -3 -21 2 -26 12 -12 23 15 12 31 -5 9 -9 8 -14 -5z"/>
</g>
</svg>
